<?xml version="1.0" encoding="UTF-8" standalone="no"?>
<!-- Copyright the templig contributors.
     SPDX-License-Identifier: MPL-2.0
-->
<!DOCTYPE svg PUBLIC "-//W3C//DTD SVG 1.1//EN" "http://www.w3.org/Graphics/SVG/1.1/DTD/svg11.dtd">
<svg width="100%" height="100%" viewBox="0 0 640 337" version="1.1" xmlns="http://www.w3.org/2000/svg"
     xml:space="preserve"
     style="fill-rule:evenodd;clip-rule:evenodd;stroke-linejoin:round;stroke-miterlimit:2;">
    <g id="Artboard1" transform="matrix(1,0,0,1,-866.119,-1014.06)">
        <rect x="866.119" y="1014.06" width="639.84" height="336.024" style="fill:none;"/>
        <clipPath id="_clip1">
            <rect x="866.119" y="1014.06" width="639.84" height="336.024"/>
        </clipPath>
        <g clip-path="url(#_clip1)">
            <g transform="matrix(1.00667,0,0,1.02469,-115.101,-264.924)">
                <path d="M1111.57,1328.32C1113.39,1328.32 1115.11,1328.66 1116.74,1329.34C1118.37,1330.02 1119.79,1330.97 1120.99,1332.18C1122.19,1333.38 1123.14,1334.79 1123.83,1336.39C1124.53,1337.99 1124.87,1339.71 1124.87,1341.54C1124.87,1343.33 1124.53,1345.01 1123.83,1346.58C1123.14,1348.15 1122.19,1349.53 1120.99,1350.71C1119.79,1351.89 1118.37,1352.82 1116.74,1353.51C1115.11,1354.19 1113.39,1354.53 1111.57,1354.53C1109.7,1354.53 1107.97,1354.19 1106.37,1353.51C1104.76,1352.82 1103.36,1351.89 1102.16,1350.71C1100.96,1349.53 1100.01,1348.15 1099.32,1346.58C1098.62,1345.01 1098.27,1343.33 1098.27,1341.54C1098.27,1339.71 1098.62,1337.99 1099.32,1336.39C1100.01,1334.79 1100.96,1333.38 1102.16,1332.18C1103.36,1330.97 1104.76,1330.02 1106.37,1329.34C1107.97,1328.66 1109.7,1328.32 1111.57,1328.32Z" style="fill:rgb(0,134,5);fill-rule:nonzero;stroke:rgb(0,134,5);stroke-width:6.6px;"/>
                <rect x="1157.32" y="1374.05" width="90.212" height="11.334" style="fill:rgb(0,134,5);fill-rule:nonzero;stroke:rgb(0,134,5);stroke-width:6.6px;"/>
                <path d="M1328.77,1300.54L1314.83,1300.54L1291.68,1261.1L1269.88,1300.54L1257.23,1300.54L1286.55,1250.24L1297.93,1250.24L1328.77,1300.54Z" style="fill:rgb(0,134,5);fill-rule:nonzero;stroke:rgb(0,134,5);stroke-width:6.6px;"/>
                <rect x="1337.75" y="1374.05" width="90.212" height="11.334" style="fill:rgb(0,134,5);fill-rule:nonzero;stroke:rgb(0,134,5);stroke-width:6.6px;"/>
                <path d="M1472.42,1328.32C1474.24,1328.32 1475.96,1328.66 1477.59,1329.34C1479.22,1330.02 1480.63,1330.97 1481.84,1332.18C1483.04,1333.38 1483.99,1334.79 1484.68,1336.39C1485.38,1337.99 1485.72,1339.71 1485.72,1341.54C1485.72,1343.33 1485.38,1345.01 1484.68,1346.58C1483.99,1348.15 1483.04,1349.53 1481.84,1350.71C1480.63,1351.89 1479.22,1352.82 1477.59,1353.51C1475.96,1354.19 1474.24,1354.53 1472.42,1354.53C1470.55,1354.53 1468.82,1354.19 1467.21,1353.51C1465.61,1352.82 1464.21,1351.89 1463.01,1350.71C1461.81,1349.53 1460.86,1348.15 1460.16,1346.58C1459.47,1345.01 1459.12,1343.33 1459.12,1341.54C1459.12,1339.71 1459.47,1337.99 1460.16,1336.39C1460.86,1334.79 1461.81,1333.38 1463.01,1332.18C1464.21,1330.97 1465.61,1330.02 1467.21,1329.34C1468.82,1328.66 1470.55,1328.32 1472.42,1328.32Z" style="fill:rgb(0,134,5);fill-rule:nonzero;stroke:rgb(0,134,5);stroke-width:6.6px;"/>
                <rect x="976.895" y="1562.79" width="90.212" height="11.334" style="fill:rgb(0,134,5);fill-rule:nonzero;stroke:rgb(0,134,5);stroke-width:6.6px;"/>
                <path d="M1138.97,1574.13L1133.04,1574.13C1122.74,1574.13 1115.07,1571.75 1110.05,1567C1105.03,1562.25 1102.52,1555.05 1102.52,1545.4L1102.52,1518.32C1102.52,1515.75 1102.23,1513.45 1101.64,1511.43C1101.05,1509.41 1100.02,1507.71 1098.55,1506.32C1097.09,1504.93 1095.13,1503.87 1092.7,1503.13C1090.28,1502.4 1087.22,1502.03 1083.53,1502.03L1080.09,1502.03L1080.09,1491.09L1083.53,1491.09C1087.43,1491.09 1090.61,1490.77 1093.07,1490.14C1095.52,1489.51 1097.44,1488.56 1098.83,1487.27C1100.22,1485.99 1101.18,1484.35 1101.72,1482.35C1102.25,1480.36 1102.52,1478 1102.52,1475.27L1102.52,1456.61C1102.52,1452.21 1103.05,1448.23 1104.12,1444.69C1105.19,1441.15 1106.94,1438.13 1109.37,1435.64C1111.8,1433.15 1114.95,1431.23 1118.82,1429.89C1122.7,1428.55 1127.44,1427.88 1133.04,1427.88L1138.97,1427.88L1138.97,1438.9L1134.25,1438.9C1121.85,1438.9 1115.66,1444.81 1115.66,1456.61L1115.66,1474.95C1115.66,1487.76 1110.02,1494.97 1098.75,1496.6C1110.13,1497.7 1115.82,1504.89 1115.82,1518.16L1115.82,1545.08C1115.82,1557.1 1121.96,1563.11 1134.25,1563.11L1138.97,1563.11L1138.97,1574.13Z" style="fill:rgb(0,134,5);fill-rule:nonzero;stroke:rgb(0,134,5);stroke-width:6.6px;"/>
                <path d="M1229.18,1574.13L1223.26,1574.13C1212.95,1574.13 1205.28,1571.75 1200.26,1567C1195.24,1562.25 1192.73,1555.05 1192.73,1545.4L1192.73,1518.32C1192.73,1515.75 1192.44,1513.45 1191.85,1511.43C1191.26,1509.41 1190.24,1507.71 1188.77,1506.32C1187.3,1504.93 1185.35,1503.87 1182.92,1503.13C1180.49,1502.4 1177.43,1502.03 1173.74,1502.03L1170.3,1502.03L1170.3,1491.09L1173.74,1491.09C1177.64,1491.09 1180.82,1490.77 1183.28,1490.14C1185.74,1489.51 1187.66,1488.56 1189.05,1487.27C1190.43,1485.99 1191.4,1484.35 1191.93,1482.35C1192.46,1480.36 1192.73,1478 1192.73,1475.27L1192.73,1456.61C1192.73,1452.21 1193.27,1448.23 1194.33,1444.69C1195.4,1441.15 1197.15,1438.13 1199.58,1435.64C1202.01,1433.15 1205.16,1431.23 1209.04,1429.89C1212.91,1428.55 1217.65,1427.88 1223.26,1427.88L1229.18,1427.88L1229.18,1438.9L1224.46,1438.9C1212.07,1438.9 1205.87,1444.81 1205.87,1456.61L1205.87,1474.95C1205.87,1487.76 1200.24,1494.97 1188.97,1496.6C1200.34,1497.7 1206.03,1504.89 1206.03,1518.16L1206.03,1545.08C1206.03,1557.1 1212.17,1563.11 1224.46,1563.11L1229.18,1563.11L1229.18,1574.13Z" style="fill:rgb(0,134,5);fill-rule:nonzero;stroke:rgb(0,134,5);stroke-width:6.6px;"/>
                <rect x="1247.53" y="1562.79" width="90.212" height="11.334" style="fill:rgb(0,134,5);fill-rule:nonzero;stroke:rgb(0,134,5);stroke-width:6.6px;"/>
                <path d="M1356.09,1427.88L1362.02,1427.88C1372.33,1427.88 1379.99,1430.26 1385.01,1435.01C1390.04,1439.76 1392.55,1446.96 1392.55,1456.61L1392.55,1474.8C1392.55,1477.37 1392.84,1479.66 1393.43,1481.68C1394.01,1483.7 1395.04,1485.41 1396.51,1486.8C1397.98,1488.19 1399.94,1489.25 1402.4,1489.99C1404.86,1490.72 1407.93,1491.09 1411.61,1491.09L1415.06,1491.09L1415.06,1502.03L1411.61,1502.03C1407.71,1502.03 1404.52,1502.34 1402.04,1502.97C1399.56,1503.6 1397.62,1504.56 1396.23,1505.85C1394.84,1507.13 1393.88,1508.77 1393.35,1510.77C1392.81,1512.76 1392.55,1515.12 1392.55,1517.85L1392.55,1545.4C1392.55,1549.81 1392.01,1553.78 1390.94,1557.32C1389.88,1560.86 1388.14,1563.88 1385.74,1566.37C1383.33,1568.87 1380.18,1570.78 1376.28,1572.12C1372.38,1573.46 1367.63,1574.13 1362.02,1574.13L1356.09,1574.13L1356.09,1563.11L1360.9,1563.11C1373.24,1563.11 1379.41,1557.2 1379.41,1545.4L1379.41,1518.16C1379.41,1505.36 1385.04,1498.17 1396.31,1496.6C1384.93,1495.39 1379.25,1488.18 1379.25,1474.95L1379.25,1456.93C1379.25,1444.91 1373.13,1438.9 1360.9,1438.9L1356.09,1438.9L1356.09,1427.88Z" style="fill:rgb(0,134,5);fill-rule:nonzero;stroke:rgb(0,134,5);stroke-width:6.6px;"/>
                <path d="M1446.3,1427.88L1452.23,1427.88C1462.54,1427.88 1470.21,1430.26 1475.23,1435.01C1480.25,1439.76 1482.76,1446.96 1482.76,1456.61L1482.76,1474.8C1482.76,1477.37 1483.05,1479.66 1483.64,1481.68C1484.23,1483.7 1485.26,1485.41 1486.72,1486.8C1488.19,1488.19 1490.15,1489.25 1492.61,1489.99C1495.07,1490.72 1498.14,1491.09 1501.83,1491.09L1505.27,1491.09L1505.27,1502.03L1501.83,1502.03C1497.93,1502.03 1494.74,1502.34 1492.25,1502.97C1489.77,1503.6 1487.83,1504.56 1486.44,1505.85C1485.05,1507.13 1484.09,1508.77 1483.56,1510.77C1483.03,1512.76 1482.76,1515.12 1482.76,1517.85L1482.76,1545.4C1482.76,1549.81 1482.22,1553.78 1481.15,1557.32C1480.09,1560.86 1478.35,1563.88 1475.95,1566.37C1473.54,1568.87 1470.39,1570.78 1466.49,1572.12C1462.6,1573.46 1457.84,1574.13 1452.23,1574.13L1446.3,1574.13L1446.3,1563.11L1451.11,1563.11C1463.45,1563.11 1469.62,1557.2 1469.62,1545.4L1469.62,1518.16C1469.62,1505.36 1475.25,1498.17 1486.52,1496.6C1475.15,1495.39 1469.46,1488.18 1469.46,1474.95L1469.46,1456.93C1469.46,1444.91 1463.34,1438.9 1451.11,1438.9L1446.3,1438.9L1446.3,1427.88Z" style="fill:rgb(0,134,5);fill-rule:nonzero;stroke:rgb(0,134,5);stroke-width:6.6px;"/>
                <rect x="1518.17" y="1562.79" width="90.212" height="11.334" style="fill:rgb(0,134,5);fill-rule:nonzero;stroke:rgb(0,134,5);stroke-width:6.6px;"/>
            </g>
        </g>
    </g>
</svg>
